<mxfile host="app.diagrams.net" agent="Mozilla/5.0 (Windows NT 10.0; Win64; x64) AppleWebKit/537.36 (KHTML, like Gecko) Chrome/131.0.0.0 Safari/537.36" version="24.8.9">
  <diagram name="Page-1" id="gQ9d3e5PHeGO4oDS4kBh">
    <mxGraphModel dx="2269" dy="1309" grid="1" gridSize="10" guides="1" tooltips="1" connect="1" arrows="1" fold="1" page="1" pageScale="1" pageWidth="827" pageHeight="1169" math="0" shadow="0">
      <root>
        <mxCell id="0" />
        <mxCell id="1" parent="0" />
        <mxCell id="7GxGBZKl_kj-n54RxsFo-4" style="edgeStyle=orthogonalEdgeStyle;rounded=0;orthogonalLoop=1;jettySize=auto;html=1;entryX=0;entryY=0.5;entryDx=0;entryDy=0;" edge="1" parent="1" source="7GxGBZKl_kj-n54RxsFo-2" target="7GxGBZKl_kj-n54RxsFo-3">
          <mxGeometry relative="1" as="geometry" />
        </mxCell>
        <mxCell id="7GxGBZKl_kj-n54RxsFo-2" value="&lt;font style=&quot;font-size: 36px;&quot;&gt;Foo&lt;/font&gt;" style="rounded=0;whiteSpace=wrap;html=1;" vertex="1" parent="1">
          <mxGeometry x="170" y="310" width="120" height="60" as="geometry" />
        </mxCell>
        <mxCell id="7GxGBZKl_kj-n54RxsFo-3" value="&lt;font style=&quot;font-size: 36px;&quot;&gt;Bar&lt;/font&gt;" style="rounded=0;whiteSpace=wrap;html=1;" vertex="1" parent="1">
          <mxGeometry x="510" y="310" width="120" height="60" as="geometry" />
        </mxCell>
      </root>
    </mxGraphModel>
  </diagram>
</mxfile>
